# xmcd CD database file
#
# Track frame offsets:
#	150
#	15022
#	33832
#	47129
#	66179
#	79784
#	96359
#	113256
#	127971
#	141478
#
# Disc length: 2053 seconds
#
# Revision: 4
# Processed by: cddbd v1.5.2PL0 Copyright (c) Steve Scherf et al.
# Submitted via: CDex 1.70beta3
#
DISCID=7508030a
DTITLE=Mink De Ville - Coup de Grﾃ｢ce
DYEAR=1900
DGENRE=Blues
TTITLE0=Just Give Me One Good Reason
TTITLE1=Help Me Make It
TTITLE2=Maybe Tomorrow
TTITLE3=Teardrops Must Fall
TTITLE4=You Better Move On
TTITLE5=Love and Emotion
TTITLE6=So In Love Are we
TTITLE7=Love Me Like You Did Before
TTITLE8=She Was Made In Heaven
TTITLE9=End Of The Line
EXTD=
EXTT0=
EXTT1=
EXTT2=
EXTT3=
EXTT4=
EXTT5=
EXTT6=
EXTT7=
EXTT8=
EXTT9=
PLAYORDER=
